<svg width="50" height="50" viewBox="0 0 50 50" fill="none" xmlns="http://www.w3.org/2000/svg">
<g clip-path="url(#clip0_54_1045)">
<path d="M15.7509 1.77579C12.6821 2.9961 9.80713 4.84376 7.32432 7.32657C7.17978 7.47032 7.04541 7.6211 6.90479 7.76719C7.9876 10.7602 9.34697 13.675 11.0001 16.4648C14.1712 12.0977 15.7563 6.93672 15.7509 1.77579Z" fill="#FFE5E5"/>
<path d="M49.8625 22.4078C42.2445 21.2195 34.1851 23.5555 28.3156 29.4242C27.3765 30.3633 26.5289 31.3609 25.7703 32.4023C31.5226 36.4492 37.9148 39.182 44.5367 40.6016C48.7484 35.3383 50.5242 28.7711 49.8625 22.4078Z" fill="#FFE5E5"/>
<path d="M21.1329 49.7C28.7501 50.8867 36.8102 48.5508 42.6797 42.682C42.9204 42.4414 43.1501 42.1945 43.3782 41.9477C36.8594 40.4422 30.5758 37.6891 24.8946 33.6961C21.8157 38.5313 20.5594 44.1899 21.1329 49.7Z" fill="#FFE5E5"/>
<path d="M9.97741 17.7766C8.28053 14.9867 6.86803 12.0758 5.73131 9.08124C1.9071 13.6976 -0.00306088 19.3648 0.00318912 25.0312C3.07038 23.8109 5.94616 21.9625 8.42897 19.4805C8.97741 18.9312 9.48991 18.3617 9.97741 17.7766Z" fill="#FFE5E5"/>
<path d="M10.8447 19.1641C10.4267 19.6484 9.99311 20.1258 9.53374 20.5852C6.75718 23.3609 3.51733 25.3867 0.064209 26.6773C0.45249 32.507 2.8689 38.2258 7.32436 42.6812C7.34546 42.7031 7.3689 42.7234 7.39077 42.7453C9.02436 36.6258 11.7619 30.7422 15.6158 25.4109C13.8517 23.4227 12.2587 21.3352 10.8447 19.1641Z" fill="#FFE5E5"/>
<path d="M23.622 32.782C21.6001 31.2703 19.6579 29.6047 17.8196 27.7664C17.4345 27.3812 17.0712 26.9828 16.7001 26.5891C12.8923 31.9234 10.2173 37.8148 8.68604 43.9383C11.8907 46.7047 15.6267 48.5234 19.5345 49.3945C19.0407 43.6633 20.404 37.8008 23.622 32.782Z" fill="#FFE5E5"/>
<path d="M17.6431 25.3133C18.0649 25.7656 18.4837 26.2203 18.9251 26.6617C20.6923 28.4289 22.5603 30.0312 24.5032 31.4898C25.3103 30.3805 26.2118 29.3195 27.2118 28.3195C33.3282 22.2031 41.6845 19.6969 49.6399 20.7922C48.8103 15.9133 46.5313 11.2336 42.7954 7.44843C35.2806 9.87889 28.2087 14.0641 22.2399 20.032C20.5634 21.7086 19.0399 23.4781 17.6431 25.3133Z" fill="#FFE5E5"/>
<path d="M11.8867 17.8844C13.2719 20.0562 14.8352 22.1469 16.5797 24.1359C17.9703 22.3297 19.4789 20.5844 21.1352 18.9281C27.068 12.9945 34.0578 8.7664 41.4969 6.22734C34.7094 0.253903 25.4633 -1.41329 17.2992 1.22343C17.4273 7.08828 15.6234 12.9844 11.8867 17.8844Z" fill="#FFE5E5"/>
</g>
<defs>
<clipPath id="clip0_54_1045">
<rect width="50" height="50" fill="white"/>
</clipPath>
</defs>
</svg>
