<svg width="35" height="35" viewBox="0 0 35 35" fill="none" xmlns="http://www.w3.org/2000/svg">
<g clip-path="url(#clip0_14_597)">
<path d="M11.0255 1.24304C8.87742 2.09726 6.86492 3.39062 5.12695 5.12859C5.02578 5.22921 4.93172 5.33476 4.83328 5.43703C5.59125 7.5321 6.54281 9.5725 7.7 11.5254C9.91977 8.46835 11.0294 4.8557 11.0255 1.24304Z" fill="#9491FF"/>
<path d="M34.9037 15.6855C29.5712 14.8537 23.9296 16.4888 19.8209 20.597C19.1636 21.2543 18.5702 21.9527 18.0392 22.6816C22.0659 25.5145 26.5404 27.4274 31.1757 28.4211C34.1239 24.7368 35.367 20.1398 34.9037 15.6855Z" fill="#9491FF"/>
<path d="M14.7929 34.79C20.125 35.6207 25.7671 33.9856 29.8758 29.8774C30.0442 29.709 30.205 29.5362 30.3647 29.3634C25.8015 28.3095 21.403 26.3824 17.4262 23.5873C15.2709 26.9719 14.3915 30.9329 14.7929 34.79Z" fill="#9491FF"/>
<path d="M6.98413 12.4436C5.79632 10.4907 4.80757 8.45304 4.01186 6.35687C1.33491 9.58836 -0.00219755 13.5554 0.00217745 17.5219C2.14921 16.6677 4.16226 15.3737 5.90022 13.6363C6.28413 13.2519 6.64288 12.8532 6.98413 12.4436Z" fill="#9491FF"/>
<path d="M7.59116 13.4149C7.29858 13.7539 6.99506 14.0881 6.6735 14.4096C4.72991 16.3527 2.46202 17.7707 0.0448303 18.6742C0.316627 22.7549 2.00811 26.7581 5.12694 29.8769C5.1417 29.8922 5.15811 29.9064 5.17342 29.9217C6.31694 25.6381 8.23319 21.5195 10.9309 17.7877C9.69608 16.3959 8.581 14.9346 7.59116 13.4149Z" fill="#9491FF"/>
<path d="M16.5353 22.9474C15.12 21.8892 13.7605 20.7233 12.4737 19.4365C12.204 19.1669 11.9497 18.888 11.69 18.6124C9.02451 22.3464 7.15201 26.4704 6.08014 30.7568C8.32342 32.6933 10.9386 33.9664 13.674 34.5762C13.3284 30.5643 14.2827 26.4606 16.5353 22.9474Z" fill="#9491FF"/>
<path d="M12.3501 17.7193C12.6454 18.036 12.9385 18.3542 13.2475 18.6632C14.4845 19.9003 15.7921 21.0219 17.1522 22.0429C17.7171 21.2663 18.3482 20.5237 19.0482 19.8237C23.3297 15.5422 29.1791 13.7878 34.7479 14.5546C34.1671 11.1393 32.5719 7.86354 29.9567 5.21393C24.6963 6.91526 19.746 9.84487 15.5679 14.0224C14.3943 15.196 13.3279 16.4347 12.3501 17.7193Z" fill="#9491FF"/>
<path d="M8.32068 12.5191C9.29029 14.0394 10.3846 15.5028 11.6058 16.8952C12.5792 15.6308 13.6352 14.4091 14.7946 13.2497C18.9476 9.0962 23.8404 6.13651 29.0478 4.35917C24.2965 0.177759 17.8243 -0.989272 12.1094 0.856431C12.1991 4.96182 10.9364 9.08909 8.32068 12.5191Z" fill="#9491FF"/>
</g>
<defs>
<clipPath id="clip0_14_597">
<rect width="35" height="35" fill="white"/>
</clipPath>
</defs>
</svg>
