<svg width="50" height="50" viewBox="0 0 50 50" fill="none" xmlns="http://www.w3.org/2000/svg">
<path d="M18.75 33.3333C5.86252 20.4438 6.47918 10.6958 12.375 6.27501L13.6813 5.30209C14.0145 5.05688 14.3937 4.8811 14.7962 4.78521C15.1987 4.68931 15.6164 4.67524 16.0244 4.74383C16.4325 4.81242 16.8226 4.96227 17.1716 5.1845C17.5206 5.40673 17.8215 5.6968 18.0563 6.03751L21.3458 10.7708C21.786 11.4043 21.9764 12.1782 21.8802 12.9436C21.7841 13.709 21.4082 14.4118 20.825 14.9167L17.6583 17.6542C16.8667 18.3396 16.4792 19.3792 16.8354 20.3646C17.4938 22.1979 19.0917 25.4333 22.8708 29.2104C26.65 32.9896 29.8833 34.5875 31.7167 35.2479C32.7042 35.6021 33.7438 35.2167 34.4292 34.4229L37.1667 31.2604C37.6716 30.6772 38.3744 30.3014 39.1398 30.2052C39.9051 30.1091 40.679 30.2994 41.3125 30.7396L46.0542 34.0313C46.3945 34.2653 46.6844 34.5653 46.9066 34.9136C47.1288 35.2618 47.2787 35.6511 47.3475 36.0584C47.4163 36.4657 47.4025 36.8827 47.307 37.2846C47.2116 37.6865 47.0363 38.0651 46.7917 38.3979L45.8125 39.7167C41.3938 45.6083 31.6417 46.2229 18.75 33.3333Z" fill="#FFE5E5"/>
</svg>
