<svg width="50" height="50" viewBox="0 0 50 50" fill="none" xmlns="http://www.w3.org/2000/svg">
<path d="M4.47963 24.2615C3.5172 24.6465 3.26613 25.8934 3.99423 26.6215L8.5804 31.2077L14.7064 29.1657L12.6644 35.2917L23.3767 46.0039C24.1131 46.7404 25.3517 46.481 25.7367 45.5186L33.9466 25.1235L24.8747 16.0516L4.47963 24.2615ZM46.0313 5.85823L44.1399 3.96687C43.6211 3.43962 42.7674 3.43962 42.2486 3.96687L33.6872 12.5199L30.3061 9.13887C29.9546 8.77898 29.3521 8.8878 29.1428 9.34816L26.8665 14.2523L35.7459 23.1318L40.6501 20.8554C41.102 20.6461 41.2108 20.0436 40.8593 19.6921L37.4783 16.3111L46.0313 7.74969C46.5586 7.2308 46.5586 6.38548 46.0313 5.85823Z" fill="#9491FF"/>
</svg>
