<svg width="50" height="50" viewBox="0 0 50 50" fill="none" xmlns="http://www.w3.org/2000/svg">
<path fill-rule="evenodd" clip-rule="evenodd" d="M7.32422 22.1313C8.7321 21.1711 9.4401 19.9137 9.31803 17.0369V9.63949C9.30583 8.60596 7.43001 8.47982 7.33643 9.63949L7.26318 15.6413C7.25911 16.7643 5.57048 16.8009 5.57454 15.6413L5.64779 9.43604C5.62744 8.3252 3.83708 8.21533 3.81266 9.43604C3.81266 11.1572 3.73942 13.9201 3.73942 15.6413C3.82894 16.7277 2.26237 16.8701 2.30306 15.6413L2.38037 9.47266C2.33968 8.63444 1.42008 8.3374 0.793457 8.72803C0.126139 9.15527 0.260417 10.0098 0.231934 10.73L0 17.8101C0.0366211 19.869 0.577799 21.5413 2.18913 22.2534C2.43327 22.3592 2.77507 22.4447 3.16976 22.5057L2.6123 39.7664C2.57975 40.7918 3.41797 41.626 4.3986 41.626H4.6224C5.72917 41.626 6.66097 40.682 6.63249 39.5304L6.14421 22.4976C6.6569 22.4162 7.08415 22.2982 7.32422 22.1313ZM46.1263 26.534H46.7285C46.7285 30.9408 46.7122 36.0311 46.5698 40.4175C46.5088 42.098 49.6582 42.0329 49.6012 40.2425L49.4832 26.534H50V8.36182C43.4977 9.35872 45.7397 21.9482 46.1263 26.534ZM42.9525 25.0895C42.9525 29.5288 41.39 33.3171 38.265 36.4461C35.1318 39.5793 31.3477 41.1458 26.9084 41.1458C22.4894 41.1458 18.7012 39.5833 15.564 36.4461C12.4308 33.3171 10.8561 29.5288 10.8561 25.0895C10.8561 20.6624 12.4268 16.8905 15.564 13.7533C18.7093 10.6201 22.4894 9.04541 26.9084 9.04541C31.3477 9.04541 35.1318 10.616 38.265 13.7533C41.3859 16.8864 42.9525 20.6624 42.9525 25.0895ZM36.2508 25.0732C36.2508 27.6611 35.3434 29.8665 33.5124 31.6976C31.6895 33.5205 29.48 34.436 26.8962 34.436C24.3286 34.436 22.1232 33.5205 20.2962 31.6976C18.4692 29.8665 17.5578 27.6611 17.5578 25.0732C17.5578 22.5057 18.4692 20.3003 20.2962 18.4774C22.1273 16.6545 24.3286 15.7389 26.8962 15.7389C32.0882 15.7471 36.2508 19.873 36.2508 25.0732ZM35.0708 16.9312C32.8206 14.681 30.0944 13.562 26.8962 13.562C23.7061 13.562 20.988 14.681 18.7541 16.9312C16.5039 19.1813 15.3727 21.8994 15.3727 25.0732C15.3727 28.2593 16.5039 30.9733 18.7541 33.2357C20.992 35.4899 23.7061 36.6211 26.8962 36.6211C30.0903 36.6211 32.8166 35.4899 35.0708 33.2357C37.3128 30.9774 38.4399 28.2593 38.4399 25.0732C38.4399 21.8953 37.3169 19.1813 35.0708 16.9312Z" fill="#FFE5E5"/>
</svg>
