<svg width="50" height="50" viewBox="0 0 50 50" fill="none" xmlns="http://www.w3.org/2000/svg">
<path d="M6 3C5.08333 3 4.26856 3.37976 3.75195 3.96094C3.23535 4.54212 3 5.27778 3 6C3 6.72222 3.23535 7.45788 3.75195 8.03906C4.26856 8.62024 5.08333 9 6 9C6.91667 9 7.73144 8.62024 8.24805 8.03906C8.76465 7.45788 9 6.72222 9 6C9 5.27778 8.76465 4.54212 8.24805 3.96094C7.73144 3.37976 6.91667 3 6 3ZM43 4C41.75 4 40.6852 4.50476 40.002 5.27344C39.3187 6.04212 39 7.02778 39 8C39 8.97222 39.3187 9.95788 40.002 10.7266C40.6852 11.4952 41.75 12 43 12C44.25 12 45.3148 11.4952 45.998 10.7266C46.6813 9.95788 47 8.97222 47 8C47 7.02778 46.6813 6.04212 45.998 5.27344C45.3148 4.50476 44.25 4 43 4ZM6 5C6.41667 5 6.60189 5.12024 6.75195 5.28906C6.90201 5.45788 7 5.72222 7 6C7 6.27778 6.90201 6.54212 6.75195 6.71094C6.60189 6.87976 6.41667 7 6 7C5.58333 7 5.39811 6.87976 5.24805 6.71094C5.09799 6.54212 5 6.27778 5 6C5 5.72222 5.09799 5.45788 5.24805 5.28906C5.39811 5.12024 5.58333 5 6 5ZM43 6C43.75 6 44.1852 6.24524 44.502 6.60156C44.8187 6.95788 45 7.47222 45 8C45 8.52778 44.8187 9.04212 44.502 9.39844C44.1852 9.75476 43.75 10 43 10C42.25 10 41.8148 9.75476 41.498 9.39844C41.1813 9.04212 41 8.52778 41 8C41 7.47222 41.1813 6.95788 41.498 6.60156C41.8148 6.24524 42.25 6 43 6ZM25 7C21.145 7 17.5714 8.17649 14.5742 10.1602C13.8119 9.45983 12.7541 9 11.5 9C10.0833 9 8.89356 9.56726 8.12695 10.4297C7.36035 11.2921 7 12.4028 7 13.5C7 14.5972 7.36035 15.7079 8.12695 16.5703C8.20705 16.6604 8.30932 16.733 8.39844 16.8164C6.88101 19.5415 6 22.6658 6 26C6 34.932 12.2044 42.4243 20.5234 44.4453C20.1894 43.6113 20 42.703 20 41.75V35.8359V35.7852C16.444 33.9602 14 30.265 14 26C14 19.935 18.935 15 25 15C31.065 15 36 19.935 36 26C36 27.226 35.79 28.4019 35.418 29.5039C36.161 29.4019 36.8448 29.1859 37.4258 28.8809C37.4258 28.8809 40.163 27.5 41.75 27.5C42.501 27.5 43.2253 27.6142 43.9062 27.8262C43.9642 27.2252 44 26.617 44 26C44 15.523 35.477 7 25 7ZM11.5 11C12.4167 11 12.9769 11.3077 13.377 11.7578C13.777 12.2079 14 12.8472 14 13.5C14 14.1528 13.777 14.7921 13.377 15.2422C12.9769 15.6923 12.4167 16 11.5 16C10.5833 16 10.0231 15.6923 9.62305 15.2422C9.22299 14.7921 9 14.1528 9 13.5C9 12.8472 9.22299 12.2079 9.62305 11.7578C10.0231 11.3077 10.5833 11 11.5 11ZM25 17C20.037 17 16 21.038 16 26C16 29.159 17.6384 31.9389 20.1074 33.5449C20.6834 30.1159 23.658 27.5 27.25 27.5C28.837 27.5 31.5742 28.8809 31.5742 28.8809C32.0822 29.1479 32.6726 29.3401 33.3086 29.4551C33.7526 28.3901 34 27.224 34 26C34 21.038 29.963 17 25 17ZM41.75 29.5C41.025 29.5 39.2962 30.179 38.3262 30.668C37.2072 31.255 35.874 31.5723 34.5 31.5723C33.126 31.5723 31.7935 31.2533 30.6465 30.6523C29.5585 30.1063 27.931 29.502 27.25 29.502C24.355 29.502 22 31.857 22 34.752C22 37.647 24.355 40.002 27.25 40.002C27.975 40.002 29.7038 39.324 30.6738 38.834C31.7928 38.247 33.126 37.9297 34.5 37.9297C35.874 37.9297 37.2065 38.2467 38.3535 38.8477C39.4415 39.3937 41.069 40 41.75 40C44.645 40 47 37.645 47 34.75C47 31.855 44.645 29.5 41.75 29.5ZM29 31.4609C29.552 31.4609 30 31.9089 30 32.4609C30 33.0129 29.552 33.4609 29 33.4609C28.448 33.4609 28 33.0129 28 32.4609C28 31.9089 28.448 31.4609 29 31.4609ZM40 31.4609C40.552 31.4609 41 31.9089 41 32.4609C41 33.0129 40.552 33.4609 40 33.4609C39.448 33.4609 39 33.0129 39 32.4609C39 31.9089 39.448 31.4609 40 31.4609ZM44 32.4609C44.552 32.4609 45 32.9089 45 33.4609C45 34.0129 44.552 34.4609 44 34.4609C43.448 34.4609 43 34.0129 43 33.4609C43 32.9089 43.448 32.4609 44 32.4609ZM25 33.4609C25.552 33.4609 26 33.9089 26 34.4609C26 35.0129 25.552 35.4609 25 35.4609C24.448 35.4609 24 35.0129 24 34.4609C24 33.9089 24.448 33.4609 25 33.4609ZM32 34.4609C32.552 34.4609 33 34.9089 33 35.4609C33 36.0129 32.552 36.4609 32 36.4609C31.448 36.4609 31 36.0129 31 35.4609C31 34.9089 31.448 34.4609 32 34.4609ZM36 34.4609C36.552 34.4609 37 34.9089 37 35.4609C37 36.0129 36.552 36.4609 36 36.4609C35.448 36.4609 35 36.0129 35 35.4609C35 34.9089 35.448 34.4609 36 34.4609ZM27 36.4609C27.552 36.4609 28 36.9089 28 37.4609C28 38.0129 27.552 38.4609 27 38.4609C26.448 38.4609 26 38.0129 26 37.4609C26 36.9089 26.448 36.4609 27 36.4609ZM42 36.4609C42.552 36.4609 43 36.9089 43 37.4609C43 38.0129 42.552 38.4609 42 38.4609C41.448 38.4609 41 38.0129 41 37.4609C41 36.9089 41.448 36.4609 42 36.4609ZM22 39.7402V41.75C22 44.645 24.355 47 27.25 47C27.975 47 29.7038 46.322 30.6738 45.832C31.7928 45.245 33.126 44.9277 34.5 44.9277C35.874 44.9277 37.2065 45.2467 38.3535 45.8477C39.4415 46.3947 41.069 47 41.75 47C44.645 47 47 44.645 47 41.75V39.7402C45.679 41.1292 43.818 42 41.75 42C40.163 42 37.4258 40.6191 37.4258 40.6191C36.6118 40.1921 35.605 39.9297 34.5 39.9297C33.395 39.9297 32.3882 40.1931 31.5742 40.6191C31.5742 40.6191 28.837 42 27.25 42C25.182 42 23.321 41.1292 22 39.7402ZM32 42.4609C32.552 42.4609 33 42.9089 33 43.4609C33 44.0129 32.552 44.4609 32 44.4609C31.448 44.4609 31 44.0129 31 43.4609C31 42.9089 31.448 42.4609 32 42.4609ZM38 42.4609C38.552 42.4609 39 42.9089 39 43.4609C39 44.0129 38.552 44.4609 38 44.4609C37.448 44.4609 37 44.0129 37 43.4609C37 42.9089 37.448 42.4609 38 42.4609ZM44 42.4609C44.552 42.4609 45 42.9089 45 43.4609C45 44.0129 44.552 44.4609 44 44.4609C43.448 44.4609 43 44.0129 43 43.4609C43 42.9089 43.448 42.4609 44 42.4609ZM27 43.4609C27.552 43.4609 28 43.9089 28 44.4609C28 45.0129 27.552 45.4609 27 45.4609C26.448 45.4609 26 45.0129 26 44.4609C26 43.9089 26.448 43.4609 27 43.4609Z" fill="#9491FF"/>
</svg>
