<svg width="50" height="51" viewBox="0 0 50 51" fill="none" xmlns="http://www.w3.org/2000/svg">
<path d="M35.4927 0H14.5322C5.4277 0 0 5.4277 0 14.5322V35.4677C0 44.5972 5.4277 50.0249 14.5322 50.0249H35.4677C44.5722 50.0249 49.9999 44.5972 49.9999 35.4927V14.5322C50.0249 5.4277 44.5972 0 35.4927 0ZM22.3862 38.7943C21.6608 39.5197 20.2851 40.22 19.2846 40.3701L13.1315 41.2455C12.9064 41.2706 12.6813 41.2956 12.4562 41.2956C11.4307 41.2956 10.4802 40.9454 9.80489 40.2701C8.97947 39.4447 8.6293 38.2441 8.8294 36.9184L9.70484 30.7653C9.85491 29.7398 10.5302 28.3891 11.2806 27.6638L22.4362 16.5082C22.6363 17.0335 22.8364 17.5587 23.1115 18.159C23.3616 18.6843 23.6368 19.2346 23.9369 19.7348C24.1871 20.16 24.4622 20.5602 24.6873 20.8604C24.9624 21.2856 25.2876 21.6858 25.4877 21.9109C25.6128 22.086 25.7128 22.2111 25.7628 22.2611C26.3882 23.0115 27.1135 23.7118 27.7388 24.2371C27.9139 24.4122 28.014 24.5122 28.064 24.5372C28.4392 24.8374 28.8144 25.1375 29.1395 25.3626C29.5397 25.6628 29.9399 25.9379 30.3651 26.163C30.8654 26.4632 31.4157 26.7383 31.9659 27.0135C32.5412 27.2636 33.0665 27.4887 33.5917 27.6638L22.3862 38.7943ZM38.4442 22.7363L36.143 25.0625C35.9929 25.2126 35.7928 25.2876 35.5927 25.2876C35.5177 25.2876 35.4176 25.2876 35.3676 25.2626C30.2901 23.8119 26.2381 19.7598 24.7874 14.6823C24.7123 14.4072 24.7874 14.107 24.9875 13.9319L27.3136 11.6058C31.1155 7.80389 34.7423 7.87893 38.4692 11.6058C40.3701 13.5067 41.2956 15.3326 41.2956 17.2336C41.2706 19.0345 40.3451 20.8354 38.4442 22.7363Z" fill="#7B7B7B"/>
</svg>
