<svg width="50" height="50" viewBox="0 0 50 50" fill="none" xmlns="http://www.w3.org/2000/svg">
<path fill-rule="evenodd" clip-rule="evenodd" d="M14.5833 4.16666C14.0308 4.16666 13.5009 4.38615 13.1102 4.77685C12.7195 5.16755 12.5 5.69746 12.5 6.24999V8.33541C10.4979 8.36457 9.70833 8.60416 8.91458 9.02916C8.0758 9.47319 7.38987 10.1591 6.94583 10.9979C6.49167 11.8458 6.25 12.6875 6.25 15.0104V37.0729C6.25 39.3937 6.49167 40.2375 6.94583 41.0854C7.4 41.9333 8.06667 42.6 8.91458 43.0542C9.7625 43.5083 10.6042 43.75 12.9271 43.75H37.0729C39.3937 43.75 40.2375 43.5083 41.0854 43.0542C41.9333 42.6 42.6 41.9333 43.0542 41.0854C43.5083 40.2375 43.75 39.3958 43.75 37.0729V15.0104C43.75 12.6875 43.5083 11.8458 43.0542 10.9979C42.6101 10.1591 41.9242 9.47319 41.0854 9.02916C40.2917 8.60416 39.5021 8.36457 37.5 8.33332V6.24999C37.5 5.69746 37.2805 5.16755 36.8898 4.77685C36.4991 4.38615 35.9692 4.16666 35.4167 4.16666C34.8641 4.16666 34.3342 4.38615 33.9435 4.77685C33.5528 5.16755 33.3333 5.69746 33.3333 6.24999V8.33332H16.6667V6.24999C16.6667 5.69746 16.4472 5.16755 16.0565 4.77685C15.6658 4.38615 15.1359 4.16666 14.5833 4.16666ZM10.4167 18.75V37.0729C10.4167 37.9625 10.4562 38.5187 10.5187 38.8417C10.5437 38.9667 10.5542 38.9958 10.6208 39.1208C10.6761 39.2336 10.7668 39.3251 10.8792 39.3812C11.0042 39.4458 11.0312 39.4562 11.1583 39.4812C11.4812 39.5437 12.0375 39.5833 12.9271 39.5833H37.0729C37.9625 39.5833 38.5187 39.5437 38.8417 39.4812C38.9407 39.4666 39.0357 39.4318 39.1208 39.3792C39.2336 39.3239 39.3251 39.2331 39.3812 39.1208C39.4332 39.0355 39.4672 38.9405 39.4812 38.8417C39.5437 38.5187 39.5833 37.9625 39.5833 37.0729L39.5917 18.75H10.4167ZM28.6458 27.0833C28.2314 27.0833 27.834 27.2479 27.541 27.541C27.248 27.834 27.0833 28.2314 27.0833 28.6458V33.8542C27.0833 34.7167 27.7833 35.4167 28.6458 35.4167H33.8542C34.2686 35.4167 34.666 35.252 34.959 34.959C35.252 34.666 35.4167 34.2686 35.4167 33.8542V28.6458C35.4167 28.2314 35.252 27.834 34.959 27.541C34.666 27.2479 34.2686 27.0833 33.8542 27.0833H28.6458Z" fill="#FFE5E5"/>
</svg>
