<svg width="50" height="50" viewBox="0 0 50 50" fill="none" xmlns="http://www.w3.org/2000/svg">
<g clip-path="url(#clip0_54_1016)">
<path d="M47.2917 23.5417L26.4583 3.75001C26.2729 3.54794 26.0475 3.38661 25.7965 3.27624C25.5455 3.16588 25.2742 3.10889 25 3.10889C24.7257 3.10889 24.4545 3.16588 24.2035 3.27624C23.9524 3.38661 23.7271 3.54794 23.5417 3.75001L2.70832 23.5417C2.31238 23.9173 2.07965 24.4333 2.06017 24.9787C2.04069 25.5241 2.23602 26.0554 2.60415 26.4583C3.01108 26.8468 3.55201 27.0635 4.11457 27.0635C4.67712 27.0635 5.21806 26.8468 5.62498 26.4583L6.24998 25.9375V43.75C6.24998 44.5788 6.57922 45.3737 7.16528 45.9597C7.75133 46.5458 8.54618 46.875 9.37498 46.875H40.625C41.4538 46.875 42.2486 46.5458 42.8347 45.9597C43.4207 45.3737 43.75 44.5788 43.75 43.75V25.9375L44.375 26.4583C44.7596 26.8509 45.2838 27.0755 45.8333 27.0833C46.4146 27.0807 46.9731 26.8573 47.3958 26.4583C47.764 26.0554 47.9593 25.5241 47.9398 24.9787C47.9203 24.4333 47.6876 23.9173 47.2917 23.5417ZM31.25 30.2083H27.0833V34.375C27.0833 34.9275 26.8638 35.4574 26.4731 35.8481C26.0824 36.2388 25.5525 36.4583 25 36.4583C24.4474 36.4583 23.9175 36.2388 23.5268 35.8481C23.1361 35.4574 22.9167 34.9275 22.9167 34.375V30.2083H18.75C18.1974 30.2083 17.6675 29.9888 17.2768 29.5981C16.8861 29.2074 16.6667 28.6775 16.6667 28.125C16.6667 27.5725 16.8861 27.0426 17.2768 26.6519C17.6675 26.2612 18.1974 26.0417 18.75 26.0417H22.9167V21.875C22.9167 21.3225 23.1361 20.7926 23.5268 20.4019C23.9175 20.0112 24.4474 19.7917 25 19.7917C25.5525 19.7917 26.0824 20.0112 26.4731 20.4019C26.8638 20.7926 27.0833 21.3225 27.0833 21.875V26.0417H31.25C31.8025 26.0417 32.3324 26.2612 32.7231 26.6519C33.1138 27.0426 33.3333 27.5725 33.3333 28.125C33.3333 28.6775 33.1138 29.2074 32.7231 29.5981C32.3324 29.9888 31.8025 30.2083 31.25 30.2083Z" fill="#FFE5E5"/>
</g>
<defs>
<clipPath id="clip0_54_1016">
<rect width="50" height="50" fill="white"/>
</clipPath>
</defs>
</svg>
