<svg width="50" height="50" viewBox="0 0 50 50" fill="none" xmlns="http://www.w3.org/2000/svg">
<path d="M7.8125 46.875H42.1875V12.5H7.8125V46.875ZM25 15.625C32.7672 15.625 39.0625 21.9203 39.0625 29.6875C39.0625 37.4547 32.7672 43.75 25 43.75C17.2328 43.75 10.9375 37.4547 10.9375 29.6875C10.9375 21.9203 17.2328 15.625 25 15.625ZM7.8125 3.125V10.9375H42.1875V3.125H7.8125ZM12.5 7.8125H10.9375V6.25H12.5V7.8125ZM15.625 7.8125H14.0625V6.25H15.625V7.8125ZM39.0625 7.8125H37.5V6.25H39.0625V7.8125ZM12.5 29.6875C12.5 29.525 12.5297 29.3719 12.5359 29.2109C13.0547 29.5062 13.6469 29.6875 14.2859 29.6875C16.2578 29.6875 17.8578 28.0891 17.8578 26.1156C17.8578 28.0875 19.4563 29.6875 21.4297 29.6875C23.4031 29.6875 25 28.0891 25 26.1156C25 28.0891 26.5984 29.6875 28.5719 29.6875C30.5453 29.6875 32.1438 28.0891 32.1438 26.1156C32.1438 28.0875 33.7422 29.6875 35.7156 29.6875C36.3547 29.6875 36.9469 29.5062 37.4656 29.2109C37.4703 29.3719 37.5 29.525 37.5 29.6875C37.5 36.5906 31.9031 42.1875 25 42.1875C18.0969 42.1875 12.5 36.5906 12.5 29.6875Z" fill="#FFE5E5"/>
</svg>
