<svg width="50" height="50" viewBox="0 0 50 50" fill="none" xmlns="http://www.w3.org/2000/svg">
<path d="M41.1014 8.07204L41.2077 8.40465L42.3561 12.4099C42.5742 13.1703 42.1893 13.9607 41.4847 14.2704L41.2849 14.3426L18.9371 20.749L42.1852 20.751C42.9762 20.751 43.6299 21.3388 43.7334 22.1014L43.7477 22.3135V40.0177C43.7477 43.0646 41.3691 45.556 38.3675 45.7364L38.0185 45.7468H11.9792C8.93228 45.7468 6.44088 43.3683 6.26051 40.3667L6.25005 40.0177L6.24963 22.5344L5.16262 18.7404C4.32277 15.8115 5.92246 12.761 8.75808 11.7602L9.09068 11.654L34.1213 4.47659C37.0502 3.63674 40.1007 5.23643 41.1014 8.07204ZM13.0681 13.7644L9.95205 14.6579C8.65593 15.0296 7.87226 16.3203 8.10601 17.6194L8.16648 17.8791L8.88384 20.3808L9.49861 20.204L13.0681 13.7644ZM22.9771 10.923L17.3157 12.5464L13.7462 18.986L19.4076 17.3627L22.9771 10.923ZM32.8882 8.08111L27.2267 9.7045L23.6572 16.1441L29.3166 14.5213L32.8882 8.08111ZM36.7365 7.59453L33.5682 13.3022L38.9193 11.7683L38.2037 9.26601C37.9805 8.48744 37.4256 7.89381 36.7365 7.59453Z" fill="#FFE5E5"/>
</svg>
