<svg width="50" height="50" viewBox="0 0 50 50" fill="none" xmlns="http://www.w3.org/2000/svg">
<path fill-rule="evenodd" clip-rule="evenodd" d="M22.5976 45.6962C12.2233 44.505 4.16675 35.6933 4.16675 25C4.16675 13.4941 13.4941 4.16666 25.0001 4.16666C36.5059 4.16666 45.8334 13.4941 45.8334 25C45.8334 35.7427 38.9945 34.8594 33.1532 34.1048C29.7842 33.6696 26.7472 33.2773 25.5457 35.1833C24.7238 36.4867 25.6122 38.1121 26.7017 39.2017C28.0632 40.5631 28.0632 42.7702 26.7017 44.1317C25.6122 45.2212 24.1284 45.8721 22.5976 45.6962ZM23.0938 14.5828C23.0938 16.3087 21.6947 17.7078 19.9688 17.7078C18.243 17.7078 16.8438 16.3087 16.8438 14.5828C16.8438 12.8569 18.243 11.4578 19.9688 11.4578C21.6947 11.4578 23.0938 12.8569 23.0938 14.5828ZM13.5417 27.0833C15.2676 27.0833 16.6667 25.6842 16.6667 23.9583C16.6667 22.2325 15.2676 20.8333 13.5417 20.8333C11.8159 20.8333 10.4167 22.2325 10.4167 23.9583C10.4167 25.6842 11.8159 27.0833 13.5417 27.0833ZM36.4584 27.0833C38.1842 27.0833 39.5834 25.6842 39.5834 23.9583C39.5834 22.2325 38.1842 20.8333 36.4584 20.8333C34.7326 20.8333 33.3334 22.2325 33.3334 23.9583C33.3334 25.6842 34.7326 27.0833 36.4584 27.0833ZM30.2084 17.7083C31.9342 17.7083 33.3334 16.3092 33.3334 14.5833C33.3334 12.8574 31.9342 11.4583 30.2084 11.4583C28.4826 11.4583 27.0834 12.8574 27.0834 14.5833C27.0834 16.3092 28.4826 17.7083 30.2084 17.7083Z" fill="#FFE5E5"/>
</svg>
