<svg width="50" height="50" viewBox="0 0 50 50" fill="none" xmlns="http://www.w3.org/2000/svg">
<g clip-path="url(#clip0_54_1033)">
<path d="M33.6177 0.00767475C29.1761 0.520989 26.6543 5.39055 26.3334 9.62018C25.8087 13.3803 27.4502 18.1784 31.3996 19.043C34.8222 19.3483 37.5451 16.1328 38.6636 13.0656C39.9846 9.22638 40.0232 4.09944 36.818 1.22323C35.9277 0.451672 34.7845 -0.0170249 33.6177 0.00767475ZM15.5001 0.208985C11.8043 0.476335 9.91009 4.77128 10.1671 8.21886C10.1986 12.8286 12.73 18.0132 17.3464 19.1075C20.7891 19.4798 23.0845 15.8285 23.2984 12.6359C23.7377 7.75001 21.5729 1.83125 16.6707 0.356096C16.2896 0.250864 15.8945 0.198635 15.5001 0.208985ZM45.1966 15.0129C40.2381 15.3764 37.1025 20.6607 36.887 25.4358C36.6261 28.5456 38.6351 32.4564 42.018 32.2421C47.0771 31.7058 50.1273 26.0672 50.0015 21.1681C49.969 18.3476 48.1817 15.1305 45.1966 15.0129ZM0.0384148 21.459C-0.420696 26.7501 3.2818 32.7305 8.66033 33.0637C11.9203 32.8459 13.4574 29.0598 13.0838 26.0642C12.7861 21.6444 9.83089 17.1184 5.99132 16.5271C2.15175 15.9358 -0.0224637 18.6484 0.0384148 21.459ZM25.5692 25.9727C20.5267 25.9844 15.9164 29.2815 13.4516 33.7424C11.3865 37.0761 9.69823 40.8501 9.37714 44.8329C9.44739 47.9045 12.3781 50.4609 15.3169 49.8491C19.5086 49.305 23.2543 46.3941 27.6132 46.9395C31.2356 47.2287 34.2231 50.0376 37.8805 49.9968C41.4317 50.1302 43.4803 46.0606 42.126 42.8731C40.6687 38.3092 37.8432 34.34 34.8106 30.7652C32.3915 28.1301 29.223 25.856 25.5692 25.9727Z" fill="#FFE5E5"/>
</g>
<defs>
<clipPath id="clip0_54_1033">
<rect width="50" height="50" fill="white"/>
</clipPath>
</defs>
</svg>
