<svg width="50" height="50" viewBox="0 0 50 50" fill="none" xmlns="http://www.w3.org/2000/svg">
<g clip-path="url(#clip0_51_990)">
<path d="M43.7501 6.25001V10.4167C43.7501 18.4708 37.2209 25 29.1667 25H27.0834V27.0833H37.5001V41.6667C37.5001 43.9688 35.6355 45.8333 33.3334 45.8333H16.6667C14.3647 45.8333 12.5001 43.9688 12.5001 41.6667V27.0833H22.9167V20.8333C22.9167 12.7792 29.4459 6.25001 37.5001 6.25001H43.7501ZM11.4584 4.16667C16.7272 4.16667 21.3855 6.77292 24.2167 10.7688C22.0917 13.5625 20.8334 17.0521 20.8334 20.8333V22.9167H19.7917C11.1626 22.9167 4.16675 15.9208 4.16675 7.29167V4.16667H11.4584Z" fill="#9491FF"/>
</g>
<defs>
<clipPath id="clip0_51_990">
<rect width="50" height="50" fill="white"/>
</clipPath>
</defs>
</svg>
