<svg width="60" height="60" viewBox="0 0 60 60" fill="none" xmlns="http://www.w3.org/2000/svg">
<g clip-path="url(#clip0_20_725)">
<path d="M44.0625 29.5H32.375V15.9375C32.375 15.1439 31.7311 14.5 30.9375 14.5C30.1439 14.5 29.5 15.1439 29.5 15.9375V29.5H15.9375C15.1439 29.5 14.5 30.1439 14.5 30.9375C14.5 31.7311 15.1439 32.375 15.9375 32.375H29.5V44.0625C29.5 44.8561 30.1439 45.5 30.9375 45.5C31.7311 45.5 32.375 44.8561 32.375 44.0625V32.375H44.0625C44.8561 32.375 45.5 31.7311 45.5 30.9375C45.5 30.1439 44.8561 29.5 44.0625 29.5Z" fill="#F3FDE8" stroke="#F3FDE8"/>
</g>
<defs>
<clipPath id="clip0_20_725">
<rect width="60" height="60" fill="white"/>
</clipPath>
</defs>
</svg>
