<svg width="50" height="50" viewBox="0 0 50 50" fill="none" xmlns="http://www.w3.org/2000/svg">
<g clip-path="url(#clip0_51_971)">
<path d="M34.375 50C36.1009 50 37.5 48.6009 37.5 46.875C37.5 45.1491 36.1009 43.75 34.375 43.75C32.6491 43.75 31.25 45.1491 31.25 46.875C31.25 48.6009 32.6491 50 34.375 50Z" fill="#9491FF"/>
<path d="M21.875 50C23.6009 50 25 48.6009 25 46.875C25 45.1491 23.6009 43.75 21.875 43.75C20.1491 43.75 18.75 45.1491 18.75 46.875C18.75 48.6009 20.1491 50 21.875 50Z" fill="#9491FF"/>
<path d="M49.4109 16.9219C48.8219 16.107 47.8789 15.625 46.875 15.625H14.8258L12.4484 2.56641C12.1797 1.08047 10.8859 0 9.375 0H3.125C1.39766 0 0 1.39766 0 3.125C0 4.85234 1.39766 6.25 3.125 6.25H6.76562L12.5516 38.0586C12.8203 39.5445 14.1141 40.625 15.625 40.625H40.625C41.9711 40.625 43.1641 39.7641 43.5883 38.4891L49.8383 19.7391C50.1586 18.7867 49.9969 17.7367 49.4109 16.9219Z" fill="#9491FF"/>
</g>
<defs>
<clipPath id="clip0_51_971">
<rect width="50" height="50" fill="white"/>
</clipPath>
</defs>
</svg>
