<svg width="50" height="50" viewBox="0 0 50 50" fill="none" xmlns="http://www.w3.org/2000/svg">
<path d="M39.1631 13.9579L33.1473 19.9737L33.1631 20.0263L37.7315 36.8421C37.8097 37.2095 37.8002 37.5902 37.7037 37.9532C37.6072 38.3163 37.4265 38.6515 37.1762 38.9316L35.6683 40.4395C35.5708 40.5533 35.4462 40.6408 35.3059 40.6938C35.1657 40.7467 35.0143 40.7635 34.8659 40.7425C34.7174 40.7215 34.5767 40.6635 34.4566 40.5737C34.3365 40.484 34.241 40.3654 34.1789 40.2289L27.9999 29.0447L26.0394 27.0816L20.8552 32.2658C20.261 32.796 19.5969 33.2423 18.8815 33.5921L20.0394 37.4C20.1273 37.763 20.1255 38.142 20.0343 38.5041C19.943 38.8663 19.7651 39.2009 19.5157 39.4789L19.0552 39.9421C18.8201 40.1754 18.5022 40.3064 18.171 40.3064C17.8397 40.3064 17.5219 40.1754 17.2868 39.9421L14.5499 37.2079L14.5025 37.1553L12.4289 35.0868L12.3762 35.0342L9.64465 32.3C9.41132 32.0649 9.28038 31.747 9.28038 31.4158C9.28038 31.0845 9.41132 30.7667 9.64465 30.5316L10.1078 30.0684C10.3864 29.82 10.7212 29.643 11.0833 29.5527C11.4455 29.4624 11.8242 29.4614 12.1868 29.55L15.9947 30.7026C16.3448 29.9874 16.791 29.3234 17.321 28.7289L22.5052 23.5447L20.542 21.5868L9.35781 15.4079C9.22137 15.3458 9.10279 15.2502 9.01303 15.1302C8.92327 15.0101 8.86521 14.8693 8.84423 14.7209C8.82325 14.5724 8.84002 14.4211 8.89298 14.2808C8.94595 14.1406 9.03341 14.0159 9.14729 13.9184L10.6552 12.4105C10.9354 12.1604 11.2706 11.9798 11.6336 11.8834C11.9966 11.7869 12.3772 11.7773 12.7447 11.8553L29.5604 16.4237L29.6131 16.4395L35.6289 10.4237C36.6026 9.44473 39.8947 7.73947 40.8736 8.71316C41.8473 9.6921 40.1394 12.9816 39.1631 13.9579Z" fill="#9491FF"/>
</svg>
