<svg width="50" height="50" viewBox="0 0 50 50" fill="none" xmlns="http://www.w3.org/2000/svg">
<path d="M20.918 3.55469C23.3594 3.55469 25.332 5.52734 25.332 7.96875C25.332 10.4102 23.3594 12.3828 20.918 12.3828C18.4766 12.3828 16.5039 10.4102 16.5039 7.96875C16.5039 5.52734 18.4766 3.55469 20.918 3.55469ZM44.3555 23.2812L39.2969 10.0195H39.2773L41.9141 0.976562L39.8828 0.390625L34.668 18.2617L36.6992 18.8477L38.3008 13.3203L41.6406 21.9336H36.6992V23.2812H31.6406C31.6406 23.2617 31.6406 23.2422 31.6406 23.2227C31.6406 21.9141 30.6836 20.7813 29.375 20.7813H21.25C21.25 20.7813 18.9648 14.4531 18.1445 13.0859C17.5 12.0312 16.5039 11.3672 15.1953 11.3672C13.1836 11.3672 11.6602 13.0273 10.5664 15.4297C8.75 19.4141 7.96875 24.3164 8.41797 28.8281C8.63281 30.6641 9.08203 32.207 10.1563 33.0859H6.54297V18.8672H3.47656V49.6094H6.54297V36.1523H21.1133L19.082 46.2305C18.7695 47.7539 19.7656 49.2383 21.2891 49.5508C21.4844 49.5898 21.6602 49.6094 21.8555 49.6094C23.1641 49.6094 24.3359 48.6914 24.6094 47.3437L26.3281 38.8086L28.5156 44.6875C28.9453 45.8203 30.0195 46.5234 31.1523 46.5234C31.4844 46.5234 31.8164 46.4648 32.1289 46.3477C33.5937 45.8008 34.3164 44.1797 33.7891 42.7344L29.0234 29.9414C28.6133 28.8477 27.5586 28.1055 26.3867 28.1055H18.8477V26.3281H43.457V49.6094H46.5234V23.2812H44.3555Z" fill="#9491FF"/>
</svg>
